<svg version="1.1" xmlns="http://www.w3.org/2000/svg" xmlns:xlink="http://www.w3.org/1999/xlink" width="48" height="48"><defs><linearGradient x1="14.22989" y1="14.22989" x2="54.98331" y2="54.98331" gradientUnits="userSpaceOnUse" id="color-1"><stop offset="0" stop-color="#000000" stop-opacity="0.35"></stop><stop offset="1" stop-color="#000000" stop-opacity="0"></stop></linearGradient><filter id="dropshadow-base"><feColorMatrix type="matrix" values="0 0 0 0 0  0 0 0 0 0  0 0 0 0 0  0 0 0 .8 0"></feColorMatrix> <feOffset dx="0" dy="1"></feOffset> <feGaussianBlur stdDeviation="1"></feGaussianBlur> <feComposite in="SourceGraphic"></feComposite></filter><filter id="dropshadow-banner" x="-10%" y="-10%" width="120%" height="130%"><feColorMatrix type="matrix" values="0 0 0 0 0  0 0 0 0 0  0 0 0 0 0  0 0 0 .4 0"></feColorMatrix> <feOffset dx="0" dy="1"></feOffset> <feGaussianBlur stdDeviation="0.5"></feGaussianBlur> <feComposite in="SourceGraphic"></feComposite></filter></defs><g fill="none" fill-rule="nonzero" stroke="none" stroke-width="none" stroke-linecap="butt" stroke-linejoin="miter" stroke-miterlimit="10" stroke-dasharray="" stroke-dashoffset="0" font-family="none" font-weight="none" font-size="none" text-anchor="none" style="mix-blend-mode: normal"><path d="M2,24c0,-12.15026 9.84974,-22 22,-22c12.15026,0 22,9.84974 22,22c0,12.15026 -9.84974,22 -22,22c-12.15026,0 -22,-9.84974 -22,-22z" id="base 1 5" fill="#00bcd4" stroke-width="1"></path><path d="M32.22412,15.77588c-2.06132,-2.06132 -5.41228,-2.06132 -7.47359,0l-3.74208,3.74208c-1.79809,1.79809 -2.0277,4.57747 -0.68884,6.62618l-2.96867,-2.96867l-1.57506,1.57506c-2.06132,2.06132 -2.06132,5.41228 0,7.47359l13.20877,13.20877c8.14753,-1.88732 14.56092,-8.30072 16.44824,-16.44824z" fill="url(#color-1)" stroke-width="1"></path><path d="M22.50951,25.49049c0.4334,0.41226 0.4334,1.0888 0,1.50106c-0.41226,0.41226 -1.0888,0.41226 -1.50106,0c-2.06132,-2.06132 -2.06132,-5.41228 0,-7.47359l3.74208,-3.74208c2.06132,-2.06132 5.41228,-2.06132 7.47359,0c2.06132,2.06132 2.06132,5.41228 0,7.47359l-1.57506,1.57506c0.01057,-0.86681 -0.12685,-1.73362 -0.42283,-2.55815l0.49683,-0.5074c1.24736,-1.23679 1.24736,-3.24525 0,-4.48204c-1.23679,-1.24736 -3.24525,-1.24736 -4.48204,0l-3.73151,3.73151c-1.24736,1.23679 -1.24736,3.24525 0,4.48204zM25.49049,21.00845c0.41226,-0.41226 1.0888,-0.41226 1.50106,0c2.06132,2.06132 2.06132,5.41228 0,7.47359l-3.74208,3.74208c-2.06132,2.06132 -5.41228,2.06132 -7.47359,0c-2.06132,-2.06132 -2.06132,-5.41228 0,-7.47359l1.57506,-1.57506c-0.01057,0.86681 0.12685,1.73362 0.42283,2.56872l-0.49683,0.49683c-1.24736,1.23679 -1.24736,3.24525 0,4.48204c1.23679,1.24736 3.24525,1.24736 4.48204,0l3.73151,-3.73151c1.24736,-1.23679 1.24736,-3.24525 0,-4.48204c-0.4334,-0.41226 -0.4334,-1.0888 0,-1.50106z" fill="none" stroke-width="0"></path><path d="M22.50951,26.99155c-0.41226,0.41226 -1.0888,0.41226 -1.50106,0c-2.06132,-2.06132 -2.06132,-5.41228 0,-7.47359l3.74208,-3.74208c2.06132,-2.06132 5.41228,-2.06132 7.47359,0c2.06132,2.06132 2.06132,5.41228 0,7.47359l-1.57506,1.57506c0.01057,-0.86681 -0.12685,-1.73362 -0.42283,-2.55815l0.49683,-0.5074c1.24736,-1.23679 1.24736,-3.24525 0,-4.48204c-1.23679,-1.24736 -3.24525,-1.24736 -4.48204,0l-3.73151,3.73151c-1.24736,1.23679 -1.24736,3.24525 0,4.48204c0.4334,0.41226 0.4334,1.0888 0,1.50106zM25.49049,21.00845c0.41226,-0.41226 1.0888,-0.41226 1.50106,0c2.06132,2.06132 2.06132,5.41228 0,7.47359l-3.74208,3.74208c-2.06132,2.06132 -5.41228,2.06132 -7.47359,0c-2.06132,-2.06132 -2.06132,-5.41228 0,-7.47359l1.57506,-1.57506c-0.01057,0.86681 0.12685,1.73362 0.42283,2.56872l-0.49683,0.49683c-1.24736,1.23679 -1.24736,3.24525 0,4.48204c1.23679,1.24736 3.24525,1.24736 4.48204,0l3.73151,-3.73151c1.24736,-1.23679 1.24736,-3.24525 0,-4.48204c-0.4334,-0.41226 -0.4334,-1.0888 0,-1.50106z" fill="#ffffff" stroke-width="0"></path><path d="M2,24c0,-12.15026 9.84974,-22 22,-22c12.15026,0 22,9.84974 22,22c0,12.15026 -9.84974,22 -22,22c-12.15026,0 -22,-9.84974 -22,-22z" id="base 1 1 1" fill="none" stroke-width="1"></path><g fill="#000000" stroke-width="1" font-family="Roboto, sans-serif" font-weight="normal" font-size="14" text-anchor="start"></g><rect x="2" y="2" width="44" height="22" fill="none" stroke-width="1"></rect><path d="M2,24v-22h44v22z" fill="none" stroke-width="1"></path><path d="M2,24v-22h44v22z" fill="none" stroke-width="1"></path><path d="M2,24v-22h44v22z" fill="none" stroke-width="1"></path><path d="M2,24v-22h44v22z" fill="none" stroke-width="1"></path></g></svg>